# xmcd CD database file
#
# Track frame offsets:
#	182
#	13247
#	25445
#	37767
#	50560
#	64305
#	74395
#	84890
#	97150
#	109592
#	119485
#	131185
#	145547
#	156957
#	168270
#	179482
#	191995
#	203785
#	214215
#	224460
#	236900
#	249637
#	263242
#	275482
#
# Disc length: 3877 seconds
#
# Revision: 0
# Processed by: cddbd v1.5.1PL0 Copyright (c) Steve Scherf et al.
# Submitted via: CDex 1.51
#
DISCID=770f2318
DTITLE=Tony Murena - Valse et swing (compil 1992)
DYEAR=1992
DGENRE=Jazz
TTITLE0=Indifference
TTITLE1=Madam's
TTITLE2=Gitan Swing
TTITLE3=Pepee
TTITLE4=Ciro's
TTITLE5=La Godasse
TTITLE6=La Guigne
TTITLE7=Swing Promenade
TTITLE8=Minouche
TTITLE9=Quai De La Jatte
TTITLE10=Joyeux Vagabond
TTITLE11=La Zone
TTITLE12=Jockey Club
TTITLE13=Pacific
TTITLE14=Swing 41
TTITLE15=Mauresque
TTITLE16=Hong Kop
TTITLE17=Impression Nocturnes
TTITLE18=Home Trainer
TTITLE19=Claridge
TTITLE20=Pasion
TTITLE21=Pre Catelan
TTITLE22=Air Mail Special
TTITLE23=Czardas
EXTD=YEAR: 1992
EXTT0=
EXTT1=
EXTT2=
EXTT3=
EXTT4=
EXTT5=
EXTT6=
EXTT7=
EXTT8=
EXTT9=
EXTT10=
EXTT11=
EXTT12=
EXTT13=
EXTT14=
EXTT15=
EXTT16=
EXTT17=
EXTT18=
EXTT19=
EXTT20=
EXTT21=
EXTT22=
EXTT23=
PLAYORDER=
